<?xml version="1.0" encoding="utf-8"?>
<!-- Generator: Adobe Illustrator 23.0.2, SVG Export Plug-In . SVG Version: 6.00 Build 0)  -->
<svg preserveAspectRatio="none" version="1.1" id="Слой_1" xmlns="http://www.w3.org/2000/svg" xmlns:xlink="http://www.w3.org/1999/xlink" x="0px" y="0px"
	 width="1925.5px" height="318px" viewBox="0 0 1925.5 318" style="enable-background:new 0 0 1925.5 318;" xml:space="preserve">
<style type="text/css">
	.st0{clip-path:url(#SVGID_2_);}
	.st1{fill:#FCCE01;}
</style>
<g>
	<defs>
		<rect id="SVGID_1_" width="1925.5" height="317.2"/>
	</defs>
	<clipPath id="SVGID_2_">
		<use xlink:href="#SVGID_1_"  style="overflow:visible;"/>
	</clipPath>
	<g class="st0">
		<path class="st1" d="M1455.2,312.4c-1.5,0-3.1-0.1-4.7-0.2c-36.7-3-59.6-40.7-83.7-80.6c-25.5-42.1-51.9-85.5-96.2-87.6
			c-15.3-0.7-24.1,7.3-34.4,16.6c-10.2,9.2-21.7,19.6-41.6,21.5c-2,0.2-4.1,0.3-6.1,0.3c-45.4,0-80.5-48.5-114.5-95.4
			c-32.6-45.1-63.5-87.7-100.9-84.8c-36.6,2.8-61.9,48-86.4,91.6c-23.5,41.9-45.8,81.6-76.5,81.6c-1.1,0-2.2-0.1-3.4-0.2
			c-18-1.7-30.1-16.4-41.8-30.6c-13-15.8-26.4-32.1-48.1-31.7c-18.7,0.4-29.7,12.6-41.3,25.5c-11.2,12.4-22.8,25.2-41.7,26.5
			c-1,0.1-2,0.1-2.9,0.1c-20.8,0-33.3-15.1-49.1-34.1c-15.3-18.4-32.6-39.3-62.7-52.6c-29.7-13.1-49.9-8.7-75.5-3.1
			c-22.6,5-50.7,11.1-93.8,6.6c-46.7-4.8-73.5-18.2-97.1-30c-23-11.5-42.8-21.4-75.9-21.9c-57-1-117.5,29.4-177.2,87.6l0-2.8
			C60,56,119.6,26.8,177.2,27.8c33.5,0.6,53.5,10.6,76.7,22.2c23.4,11.7,50,25,96.4,29.8c42.8,4.4,70.7-1.7,93.2-6.6
			c25.9-5.7,46.4-10.2,76.7,3.2c30.5,13.5,48,34.5,63.4,53.1c16.1,19.4,28.8,34.7,50.3,33.3c18.1-1.2,29.4-13.7,40.4-25.8
			c11.4-12.6,23.2-25.7,42.7-26.1c0.3,0,0.7,0,1,0c22.1,0,35.6,16.5,48.7,32.4c12,14.6,23.3,28.3,40.4,29.9
			c31.2,2.9,53.9-37.6,77.9-80.4C909.7,48.7,935.4,3,973,0.1c38.5-2.9,69.7,40.1,102.7,85.7c35.1,48.5,71.5,98.7,118.8,94.3
			c19.2-1.8,30-11.6,40.5-21c10.2-9.2,19.7-17.8,35.8-17.1c45.4,2.1,72,46.1,97.8,88.6c23.9,39.4,46.5,76.6,82.2,79.6
			c32.7,2.7,58.1-24.6,87.6-56.2c18-19.4,38.5-41.3,63.3-59c28.4-20.3,58.3-32,91.2-35.6c22.1-2.4,42.7,2.2,62.7,6.7
			c30.4,6.8,61.8,13.8,99.6-3.1c26.9-12,51.7-18.8,70.5-47.9l0,2.8c-19,29.4-42.4,34.7-69.6,46.9c-38.5,17.2-70.2,10.1-100.9,3.3
			c-19.8-4.4-40.3-9-62-6.6c-32.6,3.6-62.1,15.1-90.2,35.3c-24.6,17.6-45,39.5-63,58.8C1511.3,285.9,1486.6,312.4,1455.2,312.4z"/>
		<path class="st1" d="M492.7,75.2c3.3,0,6-2.7,6-6c0-3.3-2.7-6-6-6s-6,2.7-6,6C486.7,72.5,489.4,75.2,492.7,75.2z"/>
		<path class="st1" d="M182.7,35.2c3.3,0,6-2.7,6-6s-2.7-6-6-6c-3.3,0-6,2.7-6,6S179.4,35.2,182.7,35.2z"/>
		<path class="st1" d="M633.7,170.2c3.3,0,6-2.7,6-6c0-3.3-2.7-6-6-6c-3.3,0-6,2.7-6,6C627.7,167.5,630.4,170.2,633.7,170.2z"/>
		<path class="st1" d="M1818.7,180.2c3.3,0,6-2.7,6-6c0-3.3-2.7-6-6-6c-3.3,0-6,2.7-6,6C1812.7,177.5,1815.4,180.2,1818.7,180.2z"/>
		<path class="st1" d="M1460.7,317.2c3.3,0,6-2.7,6-6s-2.7-6-6-6c-3.3,0-6,2.7-6,6S1457.4,317.2,1460.7,317.2z"/>
		<path class="st1" d="M716.7,118.2c3.3,0,6-2.7,6-6c0-3.3-2.7-6-6-6c-3.3,0-6,2.7-6,6C710.7,115.5,713.4,118.2,716.7,118.2z"/>
		<path class="st1" d="M806.7,180.2c3.3,0,6-2.7,6-6c0-3.3-2.7-6-6-6c-3.3,0-6,2.7-6,6C800.7,177.5,803.4,180.2,806.7,180.2z"/>
	</g>
</g>
</svg>
