<svg width="162" height="48" viewBox="0 0 162 48" fill="none" xmlns="http://www.w3.org/2000/svg">
<path d="M22.078 22.0461C24.3994 23.931 25.9776 26.5778 26.532 29.5162H19.491C19.0148 28.2974 18.1805 27.2514 17.0981 26.5162C15.961 25.7724 14.6243 25.3925 13.2661 25.4271C12.3699 25.3981 11.4791 25.576 10.6628 25.947C9.84644 26.3179 9.12659 26.872 8.55905 27.5661C7.39359 29.242 6.76891 31.2344 6.76891 33.2756C6.76891 35.3169 7.39359 37.3093 8.55905 38.9851C9.12949 39.6747 9.85037 40.2243 10.6663 40.5918C11.4823 40.9593 12.3716 41.1349 13.2661 41.1051C14.6243 41.1398 15.961 40.7599 17.0981 40.0162C18.1727 39.2912 19.0061 38.2614 19.491 37.0592H26.532C25.9679 39.9883 24.3912 42.6256 22.078 44.5091C19.5951 46.4264 16.5178 47.411 13.3831 47.2911C10.9194 47.3443 8.48681 46.7329 6.34105 45.5211C4.33158 44.3555 2.70317 42.6323 1.65305 40.5601C0.564881 38.2893 0 35.8033 0 33.2851C0 30.767 0.564881 28.281 1.65305 26.0101C2.7038 23.9387 4.33208 22.2159 6.34105 21.0501C8.48681 19.8384 10.9194 19.227 13.3831 19.2801C16.515 19.1616 19.5902 20.1399 22.078 22.0461Z" fill="#11524A"/>
<path d="M51.854 25.3535V47.0615H45.1631V43.1325C44.5501 44.3929 43.5834 45.4475 42.381 46.1675C41.0812 46.9379 39.5916 47.3286 38.0811 47.2955C36.9694 47.3457 35.8606 47.1483 34.8345 46.7177C33.8085 46.2871 32.8909 45.634 32.1481 44.8055C30.59 42.8755 29.8057 40.4348 29.948 37.9585V25.3585H36.562V37.1465C36.4838 38.3995 36.895 39.6338 37.709 40.5895C38.1078 41.0019 38.59 41.3246 39.1233 41.5358C39.6567 41.747 40.229 41.8421 40.802 41.8145C41.3951 41.8445 41.9876 41.7453 42.5386 41.5238C43.0895 41.3023 43.5858 40.9637 43.9931 40.5315C44.8298 39.5036 45.2467 38.1971 45.16 36.8745V25.3535H51.854Z" fill="#11524A"/>
<path d="M66.31 26.2872C67.5968 25.5157 69.0707 25.1121 70.571 25.1202V32.2392H68.664C67.2101 32.1506 65.768 32.5473 64.564 33.3672C64.0395 33.8444 63.6342 34.4379 63.3808 35.1001C63.1274 35.7624 63.033 36.4748 63.105 37.1802V47.0612H56.452V25.3532H63.105V29.4382C63.9042 28.1452 65.0036 27.0643 66.31 26.2872Z" fill="#11524A"/>
<path d="M85.899 26.2091C87.0727 26.9406 87.9954 28.0126 88.544 29.2821V25.3531H95.154V47.0611H88.544V43.1321C87.9964 44.4022 87.0734 45.4745 85.899 46.2051C84.61 46.9838 83.1244 47.3757 81.619 47.3341C79.9231 47.3587 78.2563 46.8927 76.819 45.9921C75.3599 45.0446 74.1999 43.7022 73.474 42.1211C72.6653 40.251 72.248 38.2351 72.248 36.1976C72.248 34.1601 72.6653 32.1442 73.474 30.2741C74.204 28.701 75.3636 27.3661 76.819 26.4231C78.2561 25.5221 79.9231 25.056 81.619 25.0811C83.1243 25.0397 84.6097 25.4312 85.899 26.2091ZM80.316 32.3171C79.4705 33.4379 79.0131 34.8037 79.0131 36.2076C79.0131 37.6116 79.4705 38.9773 80.316 40.0981C81.2364 41.0022 82.477 41.5056 83.7671 41.4982C85.0572 41.4909 86.292 40.9736 87.202 40.0591C88.0711 38.9596 88.5439 37.5991 88.5439 36.1976C88.5439 34.7961 88.0711 33.4356 87.202 32.3361C86.7615 31.869 86.2268 31.5008 85.6332 31.256C85.0396 31.0112 84.4008 30.8953 83.759 30.9161C83.1183 30.8896 82.4794 31.001 81.8854 31.2427C81.2914 31.4844 80.7562 31.8508 80.316 32.3171Z" fill="#11524A"/>
<path d="M105.83 44.2968H115.554V47.0588H102.29V19.6338H105.83V44.2968Z" fill="#11524A"/>
<path d="M122.714 25.7031V47.0611H119.174V25.7031H122.714Z" fill="#11524A"/>
<path d="M133.899 21.6178C133.483 22.0934 133.17 22.6498 132.979 23.252C132.788 23.8543 132.724 24.4895 132.79 25.1178V25.7008H137.848V28.8128H132.79V47.0588H129.254V28.8148H126.181V25.7028H129.254V24.8468C129.254 19.7381 132.121 17.3001 137.854 17.5328V20.6458C135.956 20.6198 134.638 20.9438 133.899 21.6178Z" fill="#11524A"/>
<path d="M161.19 37.1407H144.111C144.071 38.148 144.234 39.1532 144.592 40.0957C144.95 41.0383 145.494 41.8988 146.193 42.6257C147.492 43.8407 149.215 44.4975 150.993 44.4547C152.531 44.5099 154.043 44.0526 155.293 43.1547C156.428 42.3164 157.19 41.0662 157.413 39.6727H161.187C160.942 41.1332 160.337 42.5097 159.427 43.6779C158.517 44.8461 157.33 45.7691 155.974 46.3637C154.455 47.0316 152.809 47.3635 151.15 47.3367C149.251 47.3735 147.374 46.9177 145.703 46.0137C144.124 45.1352 142.834 43.8176 141.988 42.2207C141.105 40.4055 140.646 38.4133 140.646 36.3947C140.646 34.3761 141.105 32.3839 141.988 30.5687C142.83 28.964 144.121 27.6391 145.703 26.7557C147.374 25.8524 149.251 25.397 151.15 25.4337C153.044 25.3888 154.916 25.8449 156.577 26.7557C158.065 27.582 159.291 28.8087 160.117 30.2967C160.94 31.7976 161.362 33.4851 161.343 35.1967C161.352 35.848 161.301 36.4988 161.19 37.1407ZM156.99 31.4607C156.435 30.4376 155.579 29.6094 154.538 29.0877C153.487 28.5656 152.328 28.299 151.154 28.3097C149.349 28.2585 147.593 28.9066 146.254 30.1187C145.557 30.8135 145.009 31.6422 144.641 32.5548C144.273 33.4674 144.094 34.445 144.114 35.4287H157.769C157.89 34.0589 157.619 32.683 156.989 31.4607H156.99Z" fill="#11524A"/>
<path d="M120.602 21.961C120.367 21.418 120.814 20.703 121.12 20.299C122.3 18.737 124.169 18.199 125.779 17.245C129.144 15.2386 131.728 12.1494 133.109 8.483C134.08 5.87 134.169 2.775 134.359 0C134.283 1.1 132.239 1.984 131.441 2.515C129.841 3.576 128.141 4.467 126.52 5.493C124.64 6.58434 123.009 8.05768 121.733 9.818C120.613 11.6145 119.927 13.6476 119.731 15.7557C119.534 17.8637 119.833 19.9885 120.602 21.961Z" fill="#11524A"/>
</svg>
