<svg width="162" height="48" viewBox="0 0 162 48" fill="none" xmlns="http://www.w3.org/2000/svg">
<path d="M22.078 22.046C24.3994 23.9309 25.9776 26.5776 26.532 29.516H19.491C19.0148 28.2972 18.1805 27.2513 17.0981 26.516C15.961 25.7723 14.6243 25.3924 13.2661 25.427C12.3699 25.398 11.4791 25.5759 10.6628 25.9468C9.84644 26.3178 9.12659 26.8718 8.55905 27.566C7.39359 29.2419 6.76891 31.2343 6.76891 33.2755C6.76891 35.3168 7.39359 37.3092 8.55905 38.985C9.12949 39.6746 9.85037 40.2242 10.6663 40.5917C11.4823 40.9592 12.3716 41.1348 13.2661 41.105C14.6243 41.1396 15.961 40.7598 17.0981 40.016C18.1727 39.291 19.0061 38.2613 19.491 37.059H26.532C25.9679 39.9882 24.3912 42.6255 22.078 44.509C19.5951 46.4263 16.5178 47.4109 13.3831 47.291C10.9194 47.3442 8.48681 46.7328 6.34105 45.521C4.33158 44.3554 2.70317 42.6322 1.65305 40.56C0.564881 38.2892 0 35.8031 0 33.285C0 30.7669 0.564881 28.2809 1.65305 26.01C2.7038 23.9386 4.33208 22.2158 6.34105 21.05C8.48681 19.8383 10.9194 19.2269 13.3831 19.28C16.515 19.1615 19.5902 20.1397 22.078 22.046Z" fill="#03B164"/>
<path d="M51.854 25.353V47.061H45.1631V43.132C44.5501 44.3924 43.5834 45.447 42.381 46.167C41.0812 46.9374 39.5916 47.3282 38.0811 47.295C36.9694 47.3452 35.8606 47.1478 34.8345 46.7172C33.8085 46.2866 32.8909 45.6335 32.1481 44.805C30.59 42.875 29.8057 40.4344 29.948 37.958V25.358H36.562V37.146C36.4838 38.399 36.895 39.6334 37.709 40.589C38.1078 41.0015 38.59 41.3241 39.1233 41.5353C39.6567 41.7466 40.229 41.8416 40.802 41.814C41.3951 41.844 41.9876 41.7448 42.5386 41.5233C43.0895 41.3018 43.5858 40.9632 43.9931 40.531C44.8298 39.5031 45.2467 38.1966 45.16 36.874V25.353H51.854Z" fill="#03B164"/>
<path d="M66.31 26.287C67.5968 25.5155 69.0707 25.1118 70.571 25.12V32.239H68.664C67.2101 32.1503 65.768 32.5471 64.564 33.367C64.0395 33.8441 63.6342 34.4377 63.3808 35.0999C63.1274 35.7621 63.033 36.4746 63.105 37.18V47.061H56.452V25.353H63.105V29.438C63.9042 28.145 65.0036 27.064 66.31 26.287Z" fill="#03B164"/>
<path d="M85.899 26.209C87.0727 26.9406 87.9954 28.0125 88.544 29.282V25.353H95.154V47.061H88.544V43.132C87.9964 44.4021 87.0734 45.4744 85.899 46.205C84.61 46.9837 83.1244 47.3756 81.619 47.334C79.9231 47.3586 78.2563 46.8926 76.819 45.992C75.3599 45.0445 74.1999 43.7021 73.474 42.121C72.6653 40.2509 72.248 38.235 72.248 36.1975C72.248 34.16 72.6653 32.1441 73.474 30.274C74.204 28.7009 75.3636 27.366 76.819 26.423C78.2561 25.522 79.9231 25.0559 81.619 25.081C83.1243 25.0396 84.6097 25.4311 85.899 26.209ZM80.316 32.317C79.4705 33.4378 79.0131 34.8036 79.0131 36.2075C79.0131 37.6115 79.4705 38.9772 80.316 40.098C81.2364 41.0021 82.477 41.5055 83.7671 41.4982C85.0572 41.4908 86.292 40.9735 87.202 40.059C88.0711 38.9595 88.5439 37.599 88.5439 36.1975C88.5439 34.796 88.0711 33.4355 87.202 32.336C86.7615 31.8689 86.2268 31.5007 85.6332 31.2559C85.0396 31.0111 84.4008 30.8952 83.759 30.916C83.1183 30.8895 82.4794 31.0009 81.8854 31.2426C81.2914 31.4843 80.7562 31.8507 80.316 32.317Z" fill="#03B164"/>
<path d="M105.83 44.297H115.554V47.059H102.29V19.634H105.83V44.297Z" fill="#03B164"/>
<path d="M122.714 25.703V47.061H119.174V25.703H122.714Z" fill="#03B164"/>
<path d="M133.899 21.618C133.483 22.0936 133.17 22.65 132.979 23.2523C132.788 23.8545 132.724 24.4897 132.79 25.118V25.701H137.848V28.813H132.79V47.059H129.254V28.815H126.181V25.703H129.254V24.847C129.254 19.7384 132.121 17.3004 137.854 17.533V20.646C135.956 20.62 134.638 20.944 133.899 21.618Z" fill="#03B164"/>
<path d="M161.19 37.141H144.111C144.071 38.1484 144.234 39.1535 144.592 40.0961C144.95 41.0386 145.494 41.8992 146.193 42.626C147.492 43.8411 149.215 44.4978 150.993 44.455C152.531 44.5102 154.043 44.0529 155.293 43.155C156.428 42.3167 157.19 41.0665 157.413 39.673H161.187C160.942 41.1335 160.337 42.51 159.427 43.6782C158.517 44.8464 157.33 45.7694 155.974 46.364C154.455 47.032 152.809 47.3639 151.15 47.337C149.251 47.3738 147.374 46.918 145.703 46.014C144.124 45.1355 142.834 43.818 141.988 42.221C141.105 40.4058 140.646 38.4136 140.646 36.395C140.646 34.3764 141.105 32.3842 141.988 30.569C142.83 28.9643 144.121 27.6394 145.703 26.756C147.374 25.8527 149.251 25.3973 151.15 25.434C153.044 25.3892 154.916 25.8452 156.577 26.756C158.065 27.5824 159.291 28.8091 160.117 30.297C160.94 31.7979 161.362 33.4855 161.343 35.197C161.352 35.8483 161.301 36.4991 161.19 37.141ZM156.99 31.461C156.435 30.4379 155.579 29.6097 154.538 29.088C153.487 28.5659 152.328 28.2993 151.154 28.31C149.349 28.2588 147.593 28.9069 146.254 30.119C145.557 30.8139 145.009 31.6426 144.641 32.5551C144.273 33.4677 144.094 34.4453 144.114 35.429H157.769C157.89 34.0592 157.619 32.6833 156.989 31.461H156.99Z" fill="#03B164"/>
<path d="M120.602 21.961C120.367 21.418 120.814 20.703 121.12 20.299C122.3 18.737 124.169 18.199 125.779 17.245C129.144 15.2386 131.728 12.1494 133.109 8.483C134.08 5.87 134.169 2.775 134.359 0C134.283 1.1 132.239 1.984 131.441 2.515C129.841 3.576 128.141 4.467 126.52 5.493C124.64 6.58434 123.009 8.05768 121.733 9.818C120.613 11.6145 119.927 13.6476 119.731 15.7557C119.534 17.8637 119.833 19.9885 120.602 21.961Z" fill="#03B164"/>
</svg>
