<?xml version="1.0" encoding="utf-8"?>
<!-- Generator: Adobe Illustrator 23.0.2, SVG Export Plug-In . SVG Version: 6.00 Build 0)  -->
<svg version="1.1" id="Слой_1" xmlns="http://www.w3.org/2000/svg" xmlns:xlink="http://www.w3.org/1999/xlink" x="0px" y="0px"
	 width="30px" height="30px" viewBox="0 0 30 30" style="enable-background:new 0 0 30 30;" xml:space="preserve">
<style type="text/css">
	.st0{fill-rule:evenodd;clip-rule:evenodd;}
</style>
<path class="st0" d="M15,5.6c1.2,0,2.3,0.3,3.3,1c1,0.6,1.7,1.6,2.2,2.6c0.4,1.1,0.6,2.3,0.3,3.4c-0.2,1.1-0.8,2.2-1.6,3
	c-0.8,0.8-1.9,1.4-3,1.6c-1.1,0.2-2.3,0.1-3.4-0.3c-1.1-0.4-2-1.2-2.6-2.2c-0.6-1-1-2.1-1-3.3c0-0.8,0.2-1.5,0.4-2.2
	c0.3-0.7,0.7-1.4,1.3-1.9s1.2-1,1.9-1.3C13.5,5.8,14.2,5.6,15,5.6z M15,0c3,0,5.8,1.3,7.8,3.4c2.1,2.1,3.2,5,3.1,7.9
	c0,5.5-5.3,13.4-9.4,18c-0.2,0.2-0.4,0.4-0.7,0.5C15.6,29.9,15.3,30,15,30c-0.3,0-0.6-0.1-0.8-0.2c-0.3-0.1-0.5-0.3-0.7-0.5
	C9.3,24.7,4,16.8,4,11.3c0-3,1.1-5.8,3.1-7.9C9.2,1.3,12,0,15,0L15,0z"/>
</svg>
