<?xml version="1.0" encoding="utf-8"?>
<!-- Generator: Adobe Illustrator 23.0.2, SVG Export Plug-In . SVG Version: 6.00 Build 0)  -->
<svg version="1.1" id="Слой_1" xmlns="http://www.w3.org/2000/svg" xmlns:xlink="http://www.w3.org/1999/xlink" x="0px" y="0px"
	 width="42px" height="42px" viewBox="0 0 42 42" style="enable-background:new 0 0 42 42;" xml:space="preserve">
<path d="M12.3,6.6c0,2.6-0.5,5.2-1.3,7.6c-0.9-0.5-1.6-1.2-1.9-2.1c-0.3-0.9-0.3-2,0.1-2.9c0.4-0.9,1.1-1.6,2-2.1
	C12.1,6.8,13.1,6.7,14,7s1.7,1,2.2,1.8c0.5,0.9,0.6,1.9,0.4,2.8c-0.2,1-0.8,1.8-1.6,2.3c-0.8,0.5-1.8,0.8-2.8,0.6
	C12.8,12.9,14,8.8,12.3,6.6L12.3,6.6z"/>
<path d="M28.5,14.1h6.5l2.5-2.5c0.1-0.1,0.1-0.1,0.2-0.2c0.8,0.1,1.6,0,2.3-0.4c0.7-0.4,1.3-1,1.7-1.7C42,8.6,42.1,7.8,42,7
	c-0.1-0.8-0.5-1.5-1.1-2.1c-0.6-0.6-1.3-0.9-2.1-1.1c-0.8-0.1-1.6,0-2.3,0.4c-0.7,0.4-1.3,0.9-1.7,1.7c-0.4,0.7-0.5,1.5-0.4,2.3
	c-0.1,0.1-0.1,0.1-0.2,0.2L28.5,14.1z"/>
<path d="M42,16.1H15.6l-1.5,1.3l0,0l-0.1,0l-2,1.8c-2.4,2.1-5.4,3.4-8.6,3.6c2.1,4.7,5.9,8.5,10.6,10.5l-2.1,5h20l-2.1-5
	c3.4-1.5,6.4-3.8,8.5-6.9C40.5,23.4,41.8,19.8,42,16.1L42,16.1z"/>
<path d="M0.1,15.4c0,0,6.3,1.5,10.5,0.7c-0.3-1.3-1.1-2.5-2.3-3.2c-1.1-0.7-2.5-1-3.8-0.8S2,12.9,1.1,14c-0.8,1.1-1.2,2.4-1.1,3.8
	c0.1,1.3,0.7,2.6,1.7,3.5c1,0.9,2.3,1.4,3.7,1.4c1.4,0,2.7-0.5,3.6-1.4s1.6-2.2,1.7-3.5C8.2,18,2.4,18.3,0.1,15.4z"/>
</svg>
