<?xml version="1.0" encoding="utf-8"?>
<!-- Generator: Adobe Illustrator 23.0.2, SVG Export Plug-In . SVG Version: 6.00 Build 0)  -->
<svg version="1.1" id="Слой_1" xmlns="http://www.w3.org/2000/svg" xmlns:xlink="http://www.w3.org/1999/xlink" x="0px" y="0px"
	 width="30px" height="30px" viewBox="0 0 30 30" style="enable-background:new 0 0 30 30;" xml:space="preserve">
<path d="M15.7,15.9c2-0.2,3.9-1.1,5.3-2.7c1.4-1.5,2.1-3.6,2-5.6c-0.1-2.1-1-4-2.5-5.4C19,0.8,17.1,0,15,0c-2.1,0-4,0.8-5.5,2.2
	C8,3.6,7.1,5.6,7,7.6c-0.1,2.1,0.6,4.1,2,5.6c1.4,1.5,3.3,2.5,5.3,2.7c-3.3,0.2-6.4,1.7-8.6,4.2c-2.2,2.4-3.4,5.7-3.3,9V30h25.3
	v-0.9c0.1-3.3-1.1-6.5-3.3-9C22.1,17.6,19,16.2,15.7,15.9L15.7,15.9z"/>
</svg>
