<?xml version="1.0" encoding="utf-8"?>
<!-- Generator: Adobe Illustrator 23.0.2, SVG Export Plug-In . SVG Version: 6.00 Build 0)  -->
<svg version="1.1" id="Слой_1" xmlns="http://www.w3.org/2000/svg" xmlns:xlink="http://www.w3.org/1999/xlink" x="0px" y="0px"
	 width="21px" height="21px" viewBox="0 0 21 21" style="enable-background:new 0 0 21 21;" xml:space="preserve">
<path d="M4.8,7H0.4v14h4.3V7z"/>
<path d="M2.6,5.2c0.5,0,1-0.1,1.4-0.4c0.4-0.3,0.8-0.7,1-1.2s0.3-1,0.2-1.5C5,1.6,4.8,1.1,4.4,0.8C4.1,0.4,3.6,0.2,3.1,0.1
	C2.6-0.1,2.1,0,1.6,0.2c-0.5,0.2-0.9,0.5-1.2,1C0.2,1.6,0,2.1,0,2.6c0,0.3,0.1,0.7,0.2,1c0.1,0.3,0.3,0.6,0.6,0.8
	C1,4.6,1.3,4.8,1.6,5S2.2,5.2,2.6,5.2z"/>
<path d="M11.7,13.6c0-2,0.9-3.1,2.6-3.1c1.6,0,2.4,1.1,2.4,3.1V21H21v-8.9c0-3.7-2.1-5.6-5.1-5.6c-0.8,0-1.7,0.2-2.4,0.6
	c-0.7,0.4-1.4,1-1.8,1.7V7H7.5v14h4.2L11.7,13.6z"/>
</svg>
