<?xml version="1.0" encoding="utf-8"?>
<!-- Generator: Adobe Illustrator 23.0.2, SVG Export Plug-In . SVG Version: 6.00 Build 0)  -->
<svg version="1.1" id="Слой_1" xmlns="http://www.w3.org/2000/svg" xmlns:xlink="http://www.w3.org/1999/xlink" x="0px" y="0px"
	 width="21px" height="21px" viewBox="0 0 21 21" style="enable-background:new 0 0 21 21;" xml:space="preserve">
<path d="M10.5,1.9c2.8,0,3.1,0,4.2,0.1c0.7,0,1.3,0.1,1.9,0.4c0.5,0.2,0.9,0.4,1.2,0.8c0.3,0.3,0.6,0.8,0.8,1.2
	C18.9,4.9,19,5.6,19,6.3c0.1,1.1,0.1,1.4,0.1,4.2c0,2.8,0,3.1-0.1,4.2c0,0.7-0.1,1.3-0.4,1.9c-0.2,0.5-0.4,0.9-0.8,1.2
	c-0.3,0.3-0.8,0.6-1.2,0.8c-0.6,0.2-1.3,0.4-1.9,0.4c-1.1,0.1-1.4,0.1-4.2,0.1c-2.8,0-3.1,0-4.2-0.1c-0.7,0-1.3-0.1-1.9-0.4
	c-0.5-0.2-0.9-0.4-1.2-0.8c-0.3-0.3-0.6-0.8-0.8-1.2C2.1,16.1,2,15.4,2,14.7c0-1.1-0.1-1.4-0.1-4.2c0-2.8,0-3.1,0.1-4.2
	c0-0.7,0.1-1.3,0.4-1.9c0.2-0.5,0.4-0.9,0.8-1.2c0.3-0.3,0.8-0.6,1.2-0.8C4.9,2.1,5.6,2,6.3,2C7.4,1.9,7.7,1.9,10.5,1.9z M10.5,0
	C7.7,0,7.3,0,6.2,0.1c-0.9,0-1.7,0.2-2.5,0.5C2.9,0.8,2.3,1.2,1.8,1.8C1.2,2.3,0.8,2.9,0.6,3.6C0.2,4.4,0.1,5.3,0.1,6.2
	C0,7.3,0,7.7,0,10.5c0,2.8,0,3.2,0.1,4.3c0,0.9,0.2,1.7,0.5,2.5c0.3,0.7,0.7,1.3,1.2,1.9c0.5,0.5,1.2,0.9,1.9,1.2
	c0.8,0.3,1.7,0.5,2.5,0.5C7.3,21,7.7,21,10.5,21c2.9,0,3.2,0,4.3-0.1c0.9,0,1.7-0.2,2.5-0.5c0.7-0.3,1.3-0.7,1.9-1.2
	c0.5-0.5,0.9-1.2,1.2-1.9c0.3-0.8,0.5-1.7,0.5-2.5c0.1-1.1,0.1-1.5,0.1-4.3c0-2.9,0-3.2-0.1-4.3c0-0.9-0.2-1.7-0.5-2.6
	c-0.3-0.7-0.7-1.3-1.2-1.9c-0.5-0.5-1.2-0.9-1.9-1.2c-0.8-0.3-1.7-0.5-2.5-0.5C13.7,0,13.4,0,10.5,0z"/>
<path d="M10.5,5.1c-1.1,0-2.1,0.3-3,0.9c-0.9,0.6-1.6,1.4-2,2.4c-0.4,1-0.5,2.1-0.3,3.1c0.2,1,0.7,2,1.5,2.8
	c0.8,0.8,1.7,1.3,2.8,1.5c1,0.2,2.1,0.1,3.1-0.3c1-0.4,1.8-1.1,2.4-2c0.6-0.9,0.9-1.9,0.9-3c0-1.4-0.6-2.8-1.6-3.8
	S11.9,5.1,10.5,5.1z M10.5,14c-0.7,0-1.4-0.2-1.9-0.6c-0.6-0.4-1-0.9-1.3-1.6c-0.3-0.6-0.3-1.3-0.2-2C7.2,9.1,7.5,8.5,8,8
	c0.5-0.5,1.1-0.8,1.8-1c0.7-0.1,1.4-0.1,2,0.2C12.5,7.5,13,8,13.4,8.6c0.4,0.6,0.6,1.3,0.6,1.9c0,0.5-0.1,0.9-0.3,1.3
	c-0.2,0.4-0.4,0.8-0.8,1.1c-0.3,0.3-0.7,0.6-1.1,0.8C11.4,13.9,11,14,10.5,14z"/>
<path d="M17.4,4.9c0,0.2-0.1,0.5-0.2,0.7C17,5.8,16.8,6,16.6,6.1c-0.2,0.1-0.5,0.1-0.7,0.1c-0.2,0-0.5-0.2-0.6-0.3
	c-0.2-0.2-0.3-0.4-0.3-0.6c0-0.2,0-0.5,0.1-0.7C15,4.2,15.2,4,15.4,3.8c0.2-0.1,0.5-0.2,0.7-0.2c0.3,0,0.7,0.1,0.9,0.4
	C17.2,4.2,17.4,4.6,17.4,4.9z"/>
</svg>
