<?xml version="1.0" encoding="utf-8"?>
<!-- Generator: Adobe Illustrator 23.0.2, SVG Export Plug-In . SVG Version: 6.00 Build 0)  -->
<svg version="1.1" id="Слой_1" xmlns="http://www.w3.org/2000/svg" xmlns:xlink="http://www.w3.org/1999/xlink" x="0px" y="0px"
	 width="42px" height="42px" viewBox="0 0 42 42" style="enable-background:new 0 0 42 42;" xml:space="preserve">
<path d="M22.8,14.7c1.2,0,2.2-1,2.2-2.2s-1-2.2-2.2-2.2s-2.2,1-2.2,2.2S21.6,14.7,22.8,14.7z"/>
<path d="M11.8,16.8l1.2,0.5l-0.6,1.3c0,0.1-0.1,0.2-0.1,0.3c0,0.1,0,0.2,0.1,0.3c0,0.1,0.1,0.2,0.2,0.3c0.1,0.1,0.2,0.1,0.3,0.2
	l2.6,1.1c0.1,0,0.2,0.1,0.3,0.1c0.1,0,0.2,0,0.3-0.1c0.1,0,0.2-0.1,0.3-0.2c0.1-0.1,0.1-0.2,0.2-0.3l0.6-1.3l1.2,0.5
	c0.2,0.1,0.4,0.1,0.6,0.1c0.2,0,0.4,0,0.6-0.1c0.2-0.1,0.4-0.2,0.5-0.3c0.1-0.1,0.3-0.3,0.3-0.5l1.1-2.7c-0.8-0.3-1.5-0.8-2-1.6
	s-0.6-1.6-0.5-2.5c0.1-0.9,0.6-1.7,1.3-2.2c0.7-0.6,1.5-0.9,2.4-0.9c0.6,0,1.2,0.1,1.7,0.4l1.3-3.1c0.1-0.2,0.1-0.4,0.1-0.6
	c0-0.2,0-0.4-0.1-0.6c-0.1-0.2-0.2-0.4-0.3-0.5c-0.1-0.1-0.3-0.3-0.5-0.3l-1.2-0.5l0.6-1.3c0-0.1,0.1-0.2,0.1-0.3
	c0-0.1,0-0.2-0.1-0.3c0-0.1-0.1-0.2-0.2-0.3c-0.1-0.1-0.2-0.1-0.3-0.2l-2.6-1.1C21.1,0,21,0,20.9,0c-0.1,0-0.2,0-0.3,0.1
	s-0.2,0.1-0.3,0.2c-0.1,0.1-0.1,0.2-0.2,0.3l-0.6,1.3l-1.2-0.5c-0.2-0.1-0.4-0.1-0.6-0.1c-0.2,0-0.4,0-0.6,0.1
	c-0.2,0.1-0.4,0.2-0.5,0.3c-0.1,0.1-0.3,0.3-0.3,0.5L11,14.7c-0.1,0.2-0.1,0.4-0.1,0.6c0,0.2,0,0.4,0.1,0.6c0.1,0.2,0.2,0.4,0.3,0.5
	C11.5,16.6,11.6,16.7,11.8,16.8L11.8,16.8z"/>
<path d="M36.7,23.9c0-3.1-1.1-6.2-3.1-8.6c-2-2.4-4.7-4.1-7.8-4.8c0.4,0.6,0.6,1.3,0.6,1.9c0,0.5-0.1,1-0.3,1.4
	c-0.2,0.4-0.5,0.8-0.8,1.2c1.5,0.4,2.8,1.1,3.9,2.1s1.9,2.3,2.4,3.7c0.5,1.4,0.6,2.9,0.4,4.4c-0.2,1.5-0.9,2.9-1.8,4.1
	c-0.9,1.2-2.1,2.1-3.5,2.7c-1.4,0.6-2.9,0.9-4.4,0.8c-1.5-0.1-2.9-0.6-4.2-1.4c-1.3-0.8-2.3-1.9-3.1-3.2h2.1c0.5,0,1-0.2,1.3-0.6
	s0.6-0.8,0.6-1.3s-0.2-1-0.6-1.3c-0.4-0.4-0.8-0.6-1.3-0.6H7.2c-0.5,0-1,0.2-1.3,0.6c-0.4,0.4-0.6,0.8-0.6,1.3c0,0.5,0.2,1,0.6,1.3
	c0.4,0.4,0.8,0.6,1.3,0.6h3c0.6,1.8,1.6,3.4,2.8,4.7c1.3,1.4,2.8,2.5,4.5,3.2c-1.2,1.1-2,2.6-2.3,4.2c0,0.2,0,0.4,0,0.5
	c0,0.2,0.1,0.3,0.2,0.5c0.1,0.1,0.3,0.3,0.4,0.3c0.2,0.1,0.3,0.1,0.5,0.1h13.2c0.2,0,0.4,0,0.5-0.1c0.2-0.1,0.3-0.2,0.4-0.3
	c0.1-0.1,0.2-0.3,0.2-0.5c0-0.2,0.1-0.4,0-0.5c-0.3-1.6-1.1-3.1-2.3-4.2c2.4-1.1,4.5-2.8,5.9-5C36,29.1,36.7,26.6,36.7,23.9
	L36.7,23.9z"/>
</svg>
