<?xml version="1.0" encoding="utf-8"?>
<!-- Generator: Adobe Illustrator 23.0.2, SVG Export Plug-In . SVG Version: 6.00 Build 0)  -->
<svg version="1.1" id="Слой_1" xmlns="http://www.w3.org/2000/svg" xmlns:xlink="http://www.w3.org/1999/xlink" x="0px" y="0px"
	 width="15.4px" height="15.4px" viewBox="0 0 15.4 15.4" style="enable-background:new 0 0 15.4 15.4;" xml:space="preserve">
<path d="M7.8,0c1.4,0,2.5,0.4,3.3,1.1c0.8,0.7,1.2,1.8,1.2,3.1c0,1.5-0.5,2.6-1.4,3.3c-0.9,0.7-2.2,1.1-3.8,1.1v2.5H5.4V7.4h0.8
	c1.3,0,2.3-0.2,3.1-0.7c0.8-0.4,1.2-1.3,1.2-2.5c0-0.8-0.2-1.5-0.7-2c-0.5-0.5-1.1-0.7-2-0.7c-0.9,0-1.6,0.2-2.1,0.7
	C5.2,2.8,4.9,3.4,4.9,4.2H3C3,3.4,3.2,2.7,3.6,2s1-1.1,1.7-1.5C6,0.2,6.9,0,7.8,0z M7.5,13.1v2.2H5.2v-2.2H7.5z"/>
</svg>
