<?xml version="1.0" encoding="utf-8"?>
<!-- Generator: Adobe Illustrator 23.0.2, SVG Export Plug-In . SVG Version: 6.00 Build 0)  -->
<svg version="1.1" id="Слой_1" xmlns="http://www.w3.org/2000/svg" xmlns:xlink="http://www.w3.org/1999/xlink" x="0px" y="0px"
	 width="21px" height="21px" viewBox="0 0 21 21" style="enable-background:new 0 0 21 21;" xml:space="preserve">
<path d="M0,17.1C1.9,18.3,4.1,19,6.3,19c2.2,0.1,4.5-0.5,6.4-1.6c1.9-1.1,3.5-2.8,4.6-4.7c1.1-2,1.6-4.2,1.5-6.4
	C19.7,5.6,20.4,4.9,21,4c-0.8,0.3-1.6,0.6-2.5,0.7c0.9-0.5,1.6-1.4,1.9-2.4c-0.8,0.5-1.8,0.9-2.7,1C17,2.6,16.2,2.2,15.2,2
	c-0.9-0.2-1.9,0-2.7,0.5c-0.8,0.4-1.5,1.2-1.9,2c-0.4,0.9-0.5,1.8-0.3,2.8C8.6,7.2,7,6.7,5.4,5.9c-1.5-0.8-2.9-1.9-4-3.2
	C0.9,3.7,0.7,4.8,1,5.9c0.2,1.1,0.9,2,1.8,2.6c-0.7,0-1.4-0.2-2-0.5c0,1,0.3,2,1,2.8c0.6,0.8,1.5,1.3,2.5,1.5
	c-0.6,0.2-1.3,0.2-1.9,0.1c0.3,0.9,0.8,1.6,1.5,2.1c0.7,0.5,1.6,0.8,2.5,0.9C4.6,16.7,2.3,17.4,0,17.1z"/>
</svg>
