<?xml version="1.0" encoding="utf-8"?>
<!-- Generator: Adobe Illustrator 23.0.2, SVG Export Plug-In . SVG Version: 6.00 Build 0)  -->
<svg version="1.1" id="Слой_1" xmlns="http://www.w3.org/2000/svg" xmlns:xlink="http://www.w3.org/1999/xlink" x="0px" y="0px"
	 width="21px" height="21px" viewBox="0 0 21 21" style="enable-background:new 0 0 21 21;" xml:space="preserve">
<path d="M13.2,8.2c0.3,0,0.5-0.1,0.7-0.2c0.2-0.1,0.4-0.3,0.6-0.5v0.7h1.1v-6h-1.1v4.5c-0.1,0.2-0.4,0.4-0.7,0.4
	c-0.2,0-0.3-0.2-0.3-0.4V2.1h-1.1v5C12.4,7.7,12.6,8.2,13.2,8.2z"/>
<path d="M8.2,6.6c0,0.2,0,0.4,0.1,0.7c0.1,0.2,0.2,0.4,0.3,0.6C8.8,8,9,8.1,9.2,8.2c0.2,0.1,0.4,0.1,0.7,0.1c0.2,0,0.4,0,0.6-0.1
	C10.7,8,10.8,7.9,11,7.8c0.2-0.2,0.3-0.3,0.3-0.5c0.1-0.2,0.1-0.4,0.1-0.6V3.7c0-0.2,0-0.4-0.1-0.6c-0.1-0.2-0.2-0.4-0.3-0.5
	c-0.1-0.2-0.3-0.3-0.5-0.3c-0.2-0.1-0.4-0.1-0.6-0.1c-0.2,0-0.4,0-0.6,0.1C9,2.2,8.8,2.4,8.7,2.5C8.5,2.7,8.4,2.8,8.3,3.1
	C8.2,3.3,8.2,3.5,8.2,3.7V6.6z M9.4,3.8c0-0.3,0.2-0.6,0.5-0.6c0.3,0,0.5,0.2,0.5,0.6v2.8c0,0.3-0.2,0.6-0.5,0.6c-0.1,0-0.1,0-0.2,0
	C9.6,7,9.5,7,9.5,7c0-0.1-0.1-0.1-0.1-0.2c0-0.1,0-0.1,0-0.2V3.8z"/>
<path d="M5.6,8.1h1.3V4.8L8.3,0H7L6.2,3.2L5.3,0H4.1l1.5,4.8L5.6,8.1z"/>
<path d="M17.1,9.5H3.9c-0.7,0-1.3,0.3-1.8,0.7c-0.5,0.5-0.7,1.1-0.7,1.8v6.4c0,0.7,0.3,1.3,0.7,1.8C2.6,20.7,3.3,21,3.9,21h13.1
	c0.7,0,1.3-0.3,1.8-0.7c0.5-0.5,0.7-1.1,0.7-1.8V12c0-0.7-0.3-1.3-0.7-1.8C18.4,9.7,17.7,9.5,17.1,9.5z M5.7,19.1H4.5v-6.6H3.3v-1.1
	h3.7v1.1H5.7L5.7,19.1z M9.9,19.1H8.9v-0.6c-0.2,0.2-0.4,0.4-0.6,0.5c-0.6,0.3-1.4,0.3-1.4-0.8v-4.8H8v4.4C8,18,8,18.2,8.3,18.2
	c0.2,0,0.5-0.3,0.6-0.4v-4.3h1.1V19.1z M14,17.9c0,0.7-0.3,1.3-1,1.3c-0.2,0-0.4,0-0.6-0.1c-0.2-0.1-0.3-0.2-0.4-0.4v0.4H11v-7.7H12
	v2.5c0.1-0.2,0.2-0.3,0.4-0.4c0.2-0.1,0.3-0.1,0.5-0.2c0.8,0,1,0.7,1,1.4V17.9z M17.9,16.4h-2v1.1c0,0.4,0,0.8,0.5,0.8
	c0.4,0,0.5-0.3,0.5-0.8v-0.4h1.1v0.4c0,1.1-0.5,1.8-1.6,1.8c-1,0-1.5-0.7-1.5-1.8v-2.6c0-0.2,0-0.4,0.1-0.6c0.1-0.2,0.2-0.4,0.3-0.6
	c0.2-0.2,0.3-0.3,0.5-0.4c0.2-0.1,0.4-0.1,0.6-0.1c1,0,1.5,0.6,1.5,1.7L17.9,16.4z"/>
<path d="M16.4,14.3c-0.4,0-0.5,0.3-0.5,0.7v0.6h0.9v-0.6C16.8,14.5,16.8,14.3,16.4,14.3z"/>
<path d="M12.3,14.3c-0.1,0-0.2,0.1-0.2,0.2V18c0.1,0.1,0.2,0.1,0.3,0.2c0.1,0.1,0.2,0.1,0.3,0.1c0.1,0,0.2-0.1,0.3-0.1
	c0.1-0.1,0.1-0.3,0.1-0.4v-2.9c0-0.2,0-0.3-0.1-0.4c-0.1-0.1-0.2-0.1-0.3-0.1C12.4,14.2,12.3,14.2,12.3,14.3z"/>
</svg>
